; NON-PLATED HOLES START AT T1
; THROUGH (PLATED) HOLES START AT T100
M48
INCH
T100C0.032000
T101C0.035000
T102C0.040000
T103C0.038000
T104C0.078740
T105C0.031497
%
T100
X036462Y018565
X032462Y018565
X032962Y019315
X027962Y019315
X035962Y019315
X031962Y019315
X028462Y018565
X036962Y019315
X028962Y019315
T101
X036462Y013565
X022462Y004565
X022462Y008565
X032462Y017565
X028296Y006399
X027462Y003565
X030068Y006399
X028462Y017565
X023462Y005565
X035462Y013565
X030068Y008959
X036462Y017565
X021462Y002565
X027462Y017565
X027462Y013565
X031462Y017565
X032462Y013565
X035462Y017565
X028462Y013565
X031462Y013565
X021462Y006565
X023462Y001565
X031462Y003565
X028296Y008959
T102
X028462Y022565
X035462Y022565
X034462Y011565
X045462Y022565
X043462Y022565
X004462Y014565
X033462Y022565
X002962Y024565
X030462Y022565
X003462Y014565
X002462Y014565
X010462Y014565
X011462Y014565
X033462Y011565
X034962Y001565
X003962Y024565
X035462Y011565
X040462Y022565
X009462Y014565
X033962Y001565
X038462Y022565
X010962Y024565
X009962Y024565
T103
X012462Y002565
X006462Y012565
X017195Y015565
X009462Y012565
X016462Y012565
X015462Y012565
X005462Y002565
X015462Y002565
X007462Y002565
X014462Y002565
X013462Y012565
X012462Y012565
X011462Y012565
X005462Y012565
X013462Y002565
X046336Y000848
X008462Y002565
X009462Y002565
X014462Y012565
X038461Y000849
X017462Y002565
X006462Y002565
X046335Y018560
X010462Y002565
X017462Y012565
X018207Y015565
X018462Y012565
X010462Y012565
X008462Y012565
X016462Y002565
X023474Y015565
X016183Y015565
X038462Y018565
X007462Y012565
X018462Y002565
X011462Y002565
X004462Y012565
X022462Y015565
X004462Y002565
X024486Y015565
T104
X008462Y024565
X036462Y001565
X032462Y001565
X005462Y024565
X012462Y024565
X001462Y024565
T105
X025462Y001581
X025462Y008549
X025462Y007565
X025462Y004581
X025462Y002565
X025462Y005565
T00
M30
